<?xml version="1.0" encoding="utf-8"?>
<!-- Generator: Adobe Illustrator 27.8.1, SVG Export Plug-In . SVG Version: 6.00 Build 0)  -->
<svg version="1.1" id="Layer_1" xmlns="http://www.w3.org/2000/svg" xmlns:xlink="http://www.w3.org/1999/xlink" x="0px" y="0px"
	 viewBox="0 0 217.76 35.02" style="enable-background:new 0 0 217.76 35.02;" xml:space="preserve">
<style type="text/css">
	.st0{fill:#FFF;}
	.st1{fill:#FFCF01;}
</style>
<g>
	<g>
		<path class="st0" d="M69.08,11.05H67.7V0.23h1.38V11.05z"/>
		<path class="st0" d="M79.63,0.23v10.83h-1.89l-4.27-9.39h-0.03v9.39H72.2V0.23h1.95l4.21,9.27h0.03V0.23H79.63z"/>
		<path class="st0" d="M82.64,11.05V0.23h5.37v1.2h-3.99V4.9h3.78v1.2h-3.78v4.95H82.64z"/>
		<path class="st0" d="M90.27,7.09V3.54c0-2.16,1.11-3.54,3.4-3.54c2.29,0,3.4,1.38,3.4,3.54v3.55c0,3-1.11,4.19-3.4,4.19
			C91.38,11.28,90.27,10.1,90.27,7.09z M95.67,7.15V3.5c0-2.27-1.56-2.34-2-2.34c-0.44,0-1.99,0.07-1.99,2.34v3.66
			c0,2.37,0.69,2.97,1.99,2.97C94.98,10.12,95.67,9.52,95.67,7.15z"/>
		<path class="st0" d="M101.41,6.07v4.98h-1.38V0.23h3.73c1.92,0,2.59,1.35,2.59,2.7c0,1.28-0.71,2.25-1.98,2.48v0.03
			c1.25,0.2,1.69,0.62,1.77,2.79c0.02,0.46,0.17,2.16,0.38,2.83h-1.44c-0.39-0.75-0.3-2.16-0.42-3.6c-0.1-1.32-1.17-1.38-1.63-1.38
			H101.41z M101.41,4.88h2.07c0.99,0,1.47-0.86,1.47-1.8c0-0.78-0.39-1.65-1.46-1.65h-2.08V4.88z"/>
		<path class="st0" d="M110.45,11.05h-1.29V0.23h2.23l2.73,9.09h0.03l2.76-9.09h2.28v10.83h-1.38V1.43h-0.03l-3.03,9.63h-1.31
			l-2.97-9.63h-0.03V11.05z"/>
		<path class="st0" d="M125.08,0.23h1.75l3.52,10.83h-1.54l-0.78-2.58h-4.19l-0.81,2.58h-1.4L125.08,0.23z M125.92,1.5h-0.03
			l-1.7,5.77h3.46L125.92,1.5z"/>
		<path class="st0" d="M137.92,0.23v1.2h-2.85v9.63h-1.38V1.43h-2.85v-1.2H137.92z"/>
		<path class="st0" d="M141.81,11.05h-1.38V0.23h1.38V11.05z"/>
		<path class="st0" d="M144.83,7.09V3.54c0-2.16,1.11-3.54,3.4-3.54s3.41,1.38,3.41,3.54v3.55c0,3-1.11,4.19-3.41,4.19
			S144.83,10.1,144.83,7.09z M150.23,7.15V3.5c0-2.27-1.56-2.34-2-2.34c-0.43,0-1.99,0.07-1.99,2.34v3.66
			c0,2.37,0.69,2.97,1.99,2.97C149.54,10.12,150.23,9.52,150.23,7.15z"/>
		<path class="st0" d="M162.06,0.23v10.83h-1.89l-4.28-9.39h-0.03v9.39h-1.23V0.23h1.95l4.21,9.27h0.03V0.23H162.06z"/>
		<path class="st0" d="M171.42,0.23h1.76l3.53,10.83h-1.54l-0.78-2.58h-4.18l-0.81,2.58h-1.39L171.42,0.23z M172.26,1.5h-0.03
			l-1.7,5.77H174L172.26,1.5z"/>
		<path class="st0" d="M186.59,0.23v10.83h-1.89l-4.27-9.39h-0.03v9.39h-1.23V0.23h1.95l4.21,9.27h0.03V0.23H186.59z"/>
		<path class="st0" d="M189.67,0.23h3.33c1.38,0,2.37,0.5,2.91,1.65c0.44,0.92,0.48,3.07,0.48,3.42c0,2.31-0.21,3.65-0.66,4.36
			c-0.58,0.93-1.68,1.39-3.57,1.39h-2.49V0.23z M191.05,9.85h1.3c1.92,0,2.62-0.72,2.62-3.24V4.42c0-2.19-0.67-3-2.12-3h-1.81V9.85z
			"/>
	</g>
	<g>
		<path class="st0" d="M74.78,14.23v1.2h-2.85v9.63h-1.38v-9.63H67.7v-1.2H74.78z"/>
		<path class="st0" d="M76.65,25.05V14.23h5.58v1.2h-4.2v3.48h3.9v1.2h-3.9v3.75h4.29v1.2H76.65z"/>
		<path class="st0" d="M89.03,17.21c0.02-0.62-0.03-1.23-0.31-1.58c-0.29-0.34-0.93-0.47-1.22-0.47c-1.14,0-1.59,0.69-1.63,0.84
			c-0.04,0.12-0.31,0.39-0.31,2.25v2.9c0,2.66,0.87,2.97,1.94,2.97c0.42,0,1.69-0.15,1.71-2.26h1.42c0.06,3.42-2.35,3.42-3.06,3.42
			c-1.35,0-3.42-0.09-3.42-4.29v-3.06c0-3.06,1.35-3.93,3.48-3.93c2.15,0,2.97,1.11,2.83,3.21H89.03z"/>
		<path class="st0" d="M92.81,25.05V14.23h1.38v4.68h3.79v-4.68h1.38v10.83h-1.38V20.1h-3.79v4.95H92.81z"/>
		<path class="st0" d="M109.5,14.23v10.83h-1.89l-4.27-9.39h-0.03v9.39h-1.23V14.23h1.95l4.21,9.27h0.03v-9.27H109.5z"/>
		<path class="st0" d="M111.96,21.1v-3.55c0-2.16,1.11-3.54,3.41-3.54c2.29,0,3.41,1.38,3.41,3.54v3.55c0,3-1.11,4.18-3.41,4.18
			C113.07,25.28,111.96,24.1,111.96,21.1z M117.36,21.15V17.5c0-2.27-1.56-2.34-2-2.34c-0.43,0-2,0.07-2,2.34v3.66
			c0,2.37,0.69,2.97,2,2.97C116.67,24.12,117.36,23.52,117.36,21.15z"/>
		<path class="st0" d="M121.18,25.05V14.23h1.38v9.63h3.98v1.2H121.18z"/>
		<path class="st0" d="M128.13,21.1v-3.55c0-2.16,1.11-3.54,3.4-3.54c2.29,0,3.41,1.38,3.41,3.54v3.55c0,3-1.11,4.18-3.41,4.18
			C129.24,25.28,128.13,24.1,128.13,21.1z M133.53,21.15V17.5c0-2.27-1.56-2.34-2-2.34c-0.43,0-1.99,0.07-1.99,2.34v3.66
			c0,2.37,0.69,2.97,1.99,2.97C132.84,24.12,133.53,23.52,133.53,21.15z"/>
		<path class="st0" d="M142.55,17.12c0-1.28-0.53-1.96-1.92-1.96c-0.44,0-2,0.07-2,2.34v3.66c0,2.37,0.69,2.97,2,2.97
			c0.99,0,1.65-0.27,1.94-0.48V20.4h-2v-1.2h3.38v5.27c-0.88,0.48-1.92,0.81-3.31,0.81c-2.29,0-3.4-1.18-3.4-4.18v-3.55
			c0-2.16,1.11-3.54,3.4-3.54c2.34,0,3.45,0.86,3.36,3.12H142.55z"/>
		<path class="st0" d="M151.4,14.23h1.4l-2.96,6.7v4.12h-1.38v-4.12l-2.91-6.7h1.54l2.12,5.24L151.4,14.23z"/>
		<path class="st0" d="M158.54,21.83v0.32c0,1.47,0.93,1.93,1.81,1.93c1.1,0,1.94-0.46,1.94-1.75c0-2.4-4.86-2.13-4.86-5.38
			c0-1.92,1.36-2.94,3.18-2.94c1.98,0,3.09,0.96,3,3.17h-1.44c0.02-1.19-0.36-1.96-1.66-1.96c-0.82,0-1.66,0.42-1.66,1.59
			c0,2.38,4.86,2.04,4.86,5.47c0,2.28-1.58,3.01-3.36,3.01c-3.19,0.03-3.19-2.42-3.16-3.45H158.54z"/>
		<path class="st0" d="M165.92,25.05V14.23h5.58v1.2h-4.2v3.48h3.9v1.2h-3.9v3.75h4.29v1.2H165.92z"/>
		<path class="st0" d="M175.03,20.07v4.98h-1.38V14.23h3.73c1.92,0,2.6,1.35,2.6,2.7c0,1.28-0.71,2.25-1.98,2.47v0.03
			c1.25,0.2,1.7,0.62,1.77,2.79c0.02,0.46,0.17,2.16,0.38,2.83h-1.44c-0.39-0.75-0.3-2.16-0.42-3.6c-0.11-1.32-1.17-1.38-1.63-1.38
			H175.03z M175.03,18.87h2.07c0.99,0,1.47-0.85,1.47-1.8c0-0.78-0.39-1.65-1.46-1.65h-2.08V18.87z"/>
		<path class="st0" d="M186.16,25.05h-1.65l-3.13-10.83h1.5l2.47,9.52h0.03l2.54-9.52h1.41L186.16,25.05z"/>
		<path class="st0" d="M192.66,25.05h-1.38V14.23h1.38V25.05z"/>
		<path class="st0" d="M200,17.21c0.01-0.62-0.03-1.23-0.31-1.58c-0.29-0.34-0.93-0.47-1.22-0.47c-1.14,0-1.59,0.69-1.63,0.84
			c-0.05,0.12-0.31,0.39-0.31,2.25v2.9c0,2.66,0.87,2.97,1.94,2.97c0.42,0,1.7-0.15,1.71-2.26h1.43c0.06,3.42-2.36,3.42-3.06,3.42
			c-1.35,0-3.42-0.09-3.42-4.29v-3.06c0-3.06,1.35-3.93,3.48-3.93c2.14,0,2.97,1.11,2.83,3.21H200z"/>
		<path class="st0" d="M203.74,25.05V14.23h5.58v1.2h-4.2v3.48h3.9v1.2h-3.9v3.75h4.29v1.2H203.74z"/>
		<path class="st0" d="M212.6,21.83v0.32c0,1.47,0.93,1.93,1.81,1.93c1.1,0,1.94-0.46,1.94-1.75c0-2.4-4.86-2.13-4.86-5.38
			c0-1.92,1.37-2.94,3.18-2.94c1.98,0,3.09,0.96,3,3.17h-1.44c0.01-1.19-0.36-1.96-1.67-1.96c-0.82,0-1.66,0.42-1.66,1.59
			c0,2.38,4.86,2.04,4.86,5.47c0,2.28-1.57,3.01-3.36,3.01c-3.2,0.03-3.2-2.42-3.17-3.45H212.6z"/>
	</g>
	<rect x="58.21" y="0.2" class="st0" width="0.5" height="34.66"/>
	<path class="st1" d="M24.23,28.81l-9.93-13.56v9.87h3.95v9.74H0v-9.74h3.7V9.94H0V0.2h14.34l9.89,13.66l9.9-13.66h14.33v9.74h-3.7
		v15.17h3.7v9.74H30.21v-9.74h3.94v-9.87L24.23,28.81z"/>
	<path class="st0" d="M187.28,34.85v-0.34c0.43-0.03,0.77-0.06,0.77-0.42c0-0.13-0.04-0.26-0.07-0.38l-0.19-0.65h-2.25l-0.2,0.55
		c-0.04,0.14-0.08,0.26-0.08,0.4c0,0.45,0.48,0.48,0.87,0.5v0.34h-2.63v-0.34c0.67-0.03,0.89-0.16,1.13-0.83l1.73-4.73l-0.1-0.15
		c0.74-0.24,0.95-0.35,1.27-0.59c0.12,0.43,0.14,0.49,0.29,0.94l1.41,4.34c0.25,0.77,0.37,0.96,1.04,1.03v0.34H187.28z
		 M186.71,29.73l-0.94,2.64h1.84L186.71,29.73z M164.49,33.43c-0.28,0.46-0.96,1.59-2.72,1.59c-1.92,0-3.17-1.42-3.17-3.28
		c0-1.73,1.05-3.43,3.21-3.43c1.13,0,1.74,0.48,2.11,0.77l0.43-0.4l0.04,1.94l-0.28,0.05c-0.11-0.37-0.27-0.67-0.69-1.12
		c-0.2-0.21-0.67-0.62-1.33-0.62c-1.15,0-2.06,0.94-2.06,2.6c0,1.4,0.75,2.72,2.22,2.72c1.12,0,1.54-0.62,1.87-1.1L164.49,33.43z
		 M165.57,34.85v-0.34c0.72-0.06,0.73-0.22,0.73-0.83c0.01-0.22,0.01-0.45,0.01-0.68v-2.68c0-0.42,0-0.83-0.03-1.03
		c-0.04-0.38-0.22-0.43-0.71-0.48v-0.34h2.73v0.34c-0.54,0.06-0.73,0.07-0.8,0.43c-0.05,0.2-0.05,0.68-0.05,1.06v0.88
		c0.55,0.03,0.93,0.04,1.47,0.04c0.54,0,0.97-0.01,1.51-0.04V30.1c-0.01-1.16-0.02-1.21-0.89-1.29v-0.34h2.77v0.34
		c-0.74,0.09-0.74,0.1-0.74,1.31v2.69c0,0.25,0.01,1.06,0.04,1.25c0.04,0.33,0.23,0.4,0.71,0.44v0.34h-2.77v-0.34
		c0.64-0.07,0.81-0.09,0.87-0.53c0.02-0.18,0.02-0.43,0.02-0.89v-1.17c-0.51-0.02-0.93-0.05-1.45-0.05c-0.55,0-0.98,0.02-1.53,0.05
		v1.17c0.01,1.33,0.03,1.33,0.85,1.42v0.34H165.57z M173.44,34.85v-0.34c0.62-0.08,0.75-0.15,0.76-0.82v-0.81v-2.59
		c-0.01-1.33-0.01-1.36-0.76-1.47v-0.34h2.65v0.34c-0.75,0.07-0.75,0.11-0.75,1.47v2.58c0,0.23,0.01,0.94,0.03,1.13
		c0.04,0.39,0.23,0.48,0.72,0.52v0.34H173.44z M155.26,34.85v-0.34c0.62-0.08,0.75-0.15,0.76-0.82v-0.81v-2.59
		c-0.01-1.33-0.01-1.36-0.76-1.47v-0.34h2.65v0.34c-0.75,0.07-0.75,0.11-0.75,1.47v2.58c0,0.23,0.01,0.94,0.03,1.13
		c0.04,0.39,0.22,0.48,0.72,0.52v0.34H155.26z M151.24,34.85v-0.34c0.8-0.05,0.8-0.09,0.81-1.27v-3.21l-2.23,4.91h-0.56l-2.05-4.97
		l-0.05,3.75c0,0.62,0.07,0.74,0.75,0.8v0.34h-2.21v-0.34c0.51-0.03,0.72-0.1,0.75-0.53c0.02-0.17,0.05-0.71,0.05-1.06l0.09-2.67
		c0.01-0.21,0.01-0.52,0.01-0.74c0-0.63-0.12-0.68-0.7-0.69v-0.34h2.01l1.99,4.85l2.19-4.85h1.94v0.38
		c-0.76,0.05-0.77,0.13-0.76,1.12v2.63c0,0.44,0.01,0.98,0.04,1.3c0.04,0.47,0.22,0.56,0.72,0.61v0.34H151.24z M190.68,34.85v-0.34
		c0.53-0.03,0.72-0.04,0.8-0.4c0.09-0.42,0.12-4.21,0.12-4.87c-0.35-0.33-0.5-0.39-0.92-0.43v-0.34h1.92
		c0.53,0.76,0.65,0.93,1.59,2.1l1.78,2.21v-2.86c-0.01-1.01-0.04-1.07-1.05-1.1v-0.34h2.52v0.34c-0.7,0.01-0.76,0.15-0.77,1.19
		l-0.09,4.93h-0.38l-0.57-0.71c-0.29-0.36-0.58-0.72-0.87-1.08l-2.52-3.11v3.31c0,1.03,0.07,1.07,1.05,1.17v0.34H190.68z
		 M137.44,31.65c0,2.21-1.5,3.36-3.2,3.36c-1.86,0-3.31-1.34-3.31-3.37c0-1.74,1.17-3.32,3.22-3.31
		C136.09,28.34,137.44,29.71,137.44,31.65z M134.25,34.42c0.36-0.01,0.87-0.19,1.27-0.79c0.45-0.69,0.54-1.33,0.52-2.16
		c-0.03-0.82-0.26-1.53-0.72-2.03c-0.21-0.22-0.61-0.54-1.14-0.53c-0.53,0-0.93,0.34-1.12,0.56c-0.45,0.51-0.66,1.23-0.66,2.05
		c0,0.83,0.11,1.46,0.58,2.14C133.38,34.26,133.89,34.42,134.25,34.42z M138.08,34.5v0.35h2.64V34.5c-0.66-0.06-0.74-0.12-0.76-0.82
		l0.01-1.82h0.71c0.71,0,1.09,0.07,1.14,0.78h0.31v-2.11h-0.31c-0.04,0.69-0.22,0.76-1,0.76h-0.84v-2.21
		c0.23-0.03,0.35-0.04,0.76-0.04c1.25,0,1.65-0.01,1.82,0.99h0.31l-0.1-1.56h-4.68v0.34c0.46,0.05,0.66,0.07,0.72,0.37
		c0.04,0.2,0.05,0.9,0.05,1.16v2.24c0,0.17-0.01,0.94-0.02,1.1C138.82,34.37,138.74,34.43,138.08,34.5z M83.22,34.84V34.5
		c0.63-0.08,0.75-0.15,0.76-0.82v-0.81v-2.58c-0.01-1.33-0.01-1.37-0.76-1.47v-0.35h2.65v0.35c-0.75,0.07-0.75,0.11-0.75,1.47v2.58
		c0,0.22,0.01,0.94,0.03,1.13c0.04,0.39,0.23,0.48,0.72,0.51v0.35H83.22z M111.34,34.84V34.5c0.62-0.08,0.75-0.15,0.76-0.82v-0.81
		v-2.58c-0.01-1.33-0.01-1.37-0.76-1.47v-0.35h2.65v0.35c-0.75,0.07-0.75,0.11-0.75,1.47v2.58c0,0.22,0.01,0.94,0.03,1.13
		c0.04,0.39,0.22,0.48,0.72,0.51v0.35H111.34z M75.45,34.84V34.5c0.53-0.03,0.72-0.04,0.8-0.4c0.09-0.43,0.12-4.21,0.12-4.87
		c-0.35-0.32-0.5-0.39-0.92-0.42v-0.35h1.92c0.53,0.76,0.65,0.93,1.59,2.1l1.78,2.21v-2.86c-0.01-1.01-0.04-1.07-1.05-1.1v-0.35
		h2.51v0.35c-0.7,0.01-0.76,0.15-0.76,1.19l-0.09,4.93h-0.38l-0.57-0.71c-0.29-0.36-0.58-0.72-0.87-1.08l-2.52-3.11v3.31
		c0,1.03,0.07,1.07,1.05,1.16v0.35H75.45z M106.06,32.85l0.33-0.04c0.35,1.04,0.94,1.6,1.9,1.6c0.68,0,1.28-0.29,1.28-0.98
		c0-0.72-0.7-1.01-1-1.14c-0.25-0.1-0.52-0.18-0.78-0.28c-0.52-0.19-1.51-0.59-1.51-1.83c0-1.19,0.94-1.86,2.03-1.86
		c0.43,0,0.92,0.09,1.47,0.44l0.39-0.28l0.21,1.89l-0.32,0.06c-0.11-0.42-0.19-0.61-0.44-0.94c-0.31-0.4-0.74-0.58-1.25-0.58
		c-0.68,0-1.07,0.33-1.07,0.83c0,0.76,0.75,1.01,1.46,1.24c0.36,0.12,0.66,0.22,0.92,0.37c0.51,0.3,0.92,0.86,0.92,1.63
		c0,1.11-0.91,2.02-2.25,2.02c-0.87,0-1.4-0.34-1.65-0.51l-0.53-0.38L106.06,32.85z M116.56,34.84v-0.27
		c0.59-0.01,0.75-0.22,0.75-0.73v-4.7h-0.79c-0.72,0-1.2-0.03-1.26,1.11h-0.33l0.05-1.79h5.8l0.05,1.79h-0.34
		c-0.05-1.14-0.53-1.11-1.25-1.11h-0.79v4.7c0,0.51,0.16,0.72,0.75,0.73v0.27H116.56z M70.57,28.46v0.35
		c-0.85,0.06-0.85,0.09-0.86,1.45v1.5c0,0.78,0.02,1.45,0.43,2.05c0.33,0.47,0.88,0.54,1.16,0.54c0.91,0,1.42-0.47,1.63-1.23
		c0.18-0.59,0.19-1.71,0.19-2.46c0-0.23,0-1-0.01-1.2c-0.04-0.58-0.34-0.6-0.91-0.64v-0.35h2.43v0.35c-0.6-0.01-0.72,0.12-0.76,0.76
		c-0.01,0.15-0.08,1.92-0.09,2.2c-0.02,0.48-0.05,0.97-0.15,1.43C73.2,34.9,71.53,35,71.09,35c-0.35,0-1.08-0.05-1.67-0.45
		c-0.95-0.64-0.96-1.6-0.96-2.63v-1.45c-0.01-0.69-0.01-1-0.03-1.16c-0.05-0.4-0.25-0.48-0.73-0.5v-0.35H70.57z M93.19,28.46v0.35
		c-0.61,0.09-0.7,0.26-1.22,1.53l-1.94,4.63h-0.34l-1.74-4.71c-0.43-1.21-0.49-1.36-1.13-1.46v-0.35h3.03v0.35
		c-0.52,0.02-0.85,0.04-0.85,0.41c0,0.18,0.04,0.33,0.22,0.87l1.11,3.25l1.3-3.36c0.08-0.22,0.19-0.52,0.19-0.68
		c0-0.46-0.45-0.48-0.85-0.49v-0.35H93.19z M123.45,34.84V34.5c0.5-0.05,0.69-0.07,0.81-0.2c0.15-0.14,0.15-0.3,0.15-1v-1.12
		l-1.69-2.63c-0.46-0.69-0.47-0.71-1.08-0.74v-0.35h3.32v0.35c-0.67,0.02-0.97,0.04-0.97,0.34c0,0.17,0.12,0.37,0.28,0.64l0.97,1.6
		l0.9-1.59c0.16-0.32,0.25-0.5,0.25-0.65c0-0.31-0.26-0.31-0.71-0.34v-0.35h2.49v0.35c-0.64,0.02-0.83,0.21-1.56,1.4l-0.99,1.66
		v1.33c0,1.16,0.01,1.25,0.96,1.3v0.35H123.45z M98.66,34.84c0-0.46,0.08-1.22,0.13-1.65h-0.31c-0.22,1.14-0.86,1.08-1.78,1.08
		c-0.85,0-1.02-0.23-1.02-0.64v-1.78h0.69c0.79,0,1.01,0.07,1.01,0.78h0.31v-2.11h-0.31c-0.06,0.57-0.18,0.76-1,0.76h-0.7v-2.25
		h0.78c1.09,0,1.47,0.08,1.62,0.95h0.29l-0.04-1.52H93.8v0.34c0.46,0.05,0.66,0.07,0.72,0.38c0.04,0.2,0.05,0.9,0.05,1.15v2.24
		c0,0.17-0.01,0.94-0.01,1.09c-0.02,0.7-0.1,0.76-0.76,0.82v0.35H98.66z M183.18,32.03v0.34c-0.58,0.03-0.58,0.2-0.6,1.41v0.48
		c-0.49,0.31-1.2,0.75-2.46,0.75c-2.2,0-3.25-1.66-3.25-3.34c0-2.04,1.38-3.37,3.12-3.37c1.09,0,1.72,0.41,2.24,0.72l0.33-0.38
		l0.05,2l-0.26,0.05c-0.13-0.38-0.33-0.82-0.81-1.3c-0.21-0.21-0.62-0.47-1.26-0.47c-1.11,0-2.04,0.94-2.04,2.78
		c0,1.47,0.72,2.72,1.96,2.72c0.71,0,1.08-0.5,1.11-0.54c0.11-0.17,0.14-0.32,0.13-0.6c-0.03-0.81-0.14-0.83-0.85-0.9v-0.34H183.18z
		 M101.63,31.42c0.17,0.04,0.41,0.06,0.6,0.06c0.72,0,1.27-0.57,1.3-1.08c0.04-0.74-0.33-1.38-1.51-1.38
		c-0.16,0-0.26,0.01-0.39,0.04V31.42z M101.63,32.81c0.01,1.46,0.01,1.66,0.78,1.68v0.35h-2.67v-0.35c0.69-0.05,0.76-0.16,0.77-0.85
		c0.01-0.26,0.01-0.56,0.01-0.82v-2.31c0-0.77-0.01-1.04-0.04-1.24c-0.05-0.35-0.22-0.42-0.74-0.46v-0.34l2.89,0.01
		c1.57,0,2.07,0.75,2.07,1.63c0,0.62-0.38,1.42-1.26,1.69l1.13,1.97c0.41,0.75,0.62,0.92,1.14,1v0.21
		c-0.14,0.01-0.27,0.02-0.42,0.02c-1.2,0-1.7-0.41-2.21-1.49l-0.35-0.75c-0.38-0.8-0.5-0.75-1.11-0.77V32.81z"/>
</g>
</svg>
